<svg aria-hidden="true" style="position: absolute; width: 0; height: 0; overflow: hidden;" version="1.1" xmlns="http://www.w3.org/2000/svg" xmlns:xlink="http://www.w3.org/1999/xlink">
<defs>
<symbol id="icon-Star-1" viewBox="0 0 32 32">
<path d="M6.693 0l10.657 10.184 14.322-3.491-10.184 10.658 3.491 14.322-10.657-10.184-14.322 3.491 10.184-10.657z"></path>
</symbol>
<symbol id="icon-Vector" viewBox="0 0 38 32">
<path d="M37.348 7.451c-0.316-0.291-0.719-0.494-1.165-0.565l-0.013-0.002c-0.096-0.015-0.206-0.024-0.318-0.024-0.348 0-0.676 0.082-0.968 0.228l0.012-0.006-8.416 4.107c-0.044 0.026-0.096 0.041-0.152 0.041-0.033 0-0.065-0.005-0.095-0.015l0.002 0.001c-0.042-0.016-0.079-0.038-0.111-0.065l0 0c-0.032-0.030-0.058-0.066-0.077-0.106l-0.001-0.002-4.916-9.716c-0.198-0.4-0.487-0.727-0.843-0.965l-0.009-0.006c-0.333-0.222-0.742-0.355-1.182-0.356h-0c-0.44 0.001-0.849 0.134-1.19 0.361l0.008-0.005c-0.357 0.234-0.652 0.569-0.851 0.971l-4.916 9.716c-0.020 0.042-0.047 0.078-0.079 0.108l-0 0c-0.031 0.027-0.068 0.050-0.108 0.065l-0.002 0.001c-0.028 0.010-0.060 0.015-0.093 0.015-0.056 0-0.108-0.016-0.152-0.043l0.001 0.001-8.417-4.107c-0.28-0.145-0.611-0.23-0.963-0.23-0.109 0-0.216 0.008-0.32 0.024l0.012-0.001c-0.459 0.070-0.861 0.272-1.178 0.565l0.001-0.001c-0.335 0.308-0.588 0.702-0.723 1.146l-0.005 0.018c-0.077 0.244-0.121 0.524-0.121 0.815 0 0.211 0.023 0.417 0.068 0.615l-0.004-0.019 4.25 19.855c0.071 0.336 0.204 0.652 0.391 0.929s0.422 0.51 0.692 0.684c0.356 0.24 0.765 0.367 1.183 0.367q0.322-0.004 0.633-0.092c3.561-1.128 7.657-1.778 11.905-1.778 4.226 0 8.302 0.643 12.135 1.838l-0.289-0.078c0.302 0.096 0.62 0.124 0.933 0.081 0.335-0.048 0.635-0.164 0.898-0.334l-0.009 0.005c0.28-0.182 0.512-0.412 0.692-0.679l0.005-0.009c0.188-0.278 0.323-0.596 0.396-0.933l4.234-19.856c0.044-0.185 0.069-0.397 0.069-0.615 0-0.282-0.042-0.553-0.121-0.809l0.005 0.020c-0.137-0.461-0.387-0.854-0.718-1.16l-0.002-0.002zM36.18 9.504l-4.25 19.855c-0.023 0.097-0.076 0.179-0.149 0.238l-0.001 0.001c-0.053 0.029-0.115 0.046-0.182 0.046-0.030 0-0.059-0.003-0.087-0.010l0.003 0c-3.715-1.174-7.987-1.851-12.417-1.851s-8.702 0.677-12.718 1.932l0.302-0.081c-0.027 0.009-0.059 0.014-0.092 0.014-0.064 0-0.123-0.020-0.171-0.053l0.001 0.001c-0.040-0.027-0.073-0.061-0.099-0.1l-0.001-0.001c-0.026-0.038-0.045-0.084-0.054-0.133l-0-0.002-4.251-19.855c-0.004-0.021-0.006-0.045-0.006-0.070 0-0.091 0.029-0.176 0.078-0.246l-0.001 0.001c0.031-0.042 0.070-0.077 0.115-0.102l0.002-0.001c0.042-0.023 0.092-0.038 0.145-0.041l0.001-0 0.133 0.036 8.434 4.125c0.277 0.141 0.604 0.224 0.951 0.224 0.264 0 0.517-0.048 0.751-0.136l-0.015 0.005c0.573-0.223 1.028-0.645 1.29-1.178l0.006-0.014 4.917-9.717c0.027-0.057 0.066-0.104 0.115-0.14l0.001-0.001c0.047-0.033 0.105-0.052 0.167-0.052s0.12 0.020 0.168 0.053l-0.001-0.001c0.050 0.036 0.090 0.083 0.116 0.138l0.001 0.002 4.916 9.717c0.28 0.563 0.743 0.988 1.296 1.192s1.156 0.171 1.687-0.092l8.434-4.124c0.040-0.021 0.087-0.033 0.138-0.033 0.083 0 0.158 0.033 0.213 0.087l-0-0c0.049 0.043 0.086 0.099 0.106 0.163l0.001 0.003c0.012 0.036 0.018 0.077 0.018 0.12 0 0.029-0.003 0.057-0.009 0.085l0-0.003zM25.43 23.437c-0.027 0.276-0.148 0.519-0.329 0.702l0-0c-0.185 0.183-0.423 0.284-0.671 0.287h-0.1c-1.57-0.184-3.39-0.289-5.233-0.289s-3.663 0.105-5.452 0.309l0.219-0.020c-0.032 0.004-0.069 0.006-0.106 0.006-0.242 0-0.462-0.092-0.627-0.242l0.001 0.001c-0.204-0.185-0.341-0.442-0.368-0.732l-0-0.005c-0.003-0.030-0.004-0.065-0.004-0.1 0-0.266 0.086-0.511 0.232-0.71l-0.002 0.003c0.169-0.227 0.411-0.371 0.675-0.404 1.631-0.201 3.519-0.316 5.433-0.316s3.803 0.115 5.657 0.338l-0.224-0.022c0.26 0.033 0.5 0.175 0.668 0.396s0.251 0.507 0.232 0.796z"></path>
</symbol>
<symbol id="icon-Group-46194" viewBox="0 0 40 32">
<path d="M12.337 10.243h-12.51c-0.385 0-0.696 0.297-0.696 0.666v4.001c0 0.369 0.311 0.667 0.696 0.667h0.695v15.336c0 0.369 0.311 0.667 0.696 0.667h9.729c0.384 0 0.696-0.298 0.696-0.667v-15.336h0.695c0.384 0 0.695-0.298 0.695-0.667v-4c0-0.37-0.311-0.668-0.695-0.668zM4.692 22.912v-1.334h4.169v-1.334h-4.169v-1.334h5.56v8.668h-5.56v-3.334h1.39v-1.334zM10.252 17.577h-6.256c-0.384 0-0.695 0.298-0.695 0.667v10.002c0 0.369 0.311 0.667 0.695 0.667h6.256v1.334h-8.342v-14.671h8.341zM11.641 14.244h-11.119v-2.667h11.12zM21.546 10.367v-4.875c-0.002-0.379-0.31-0.686-0.69-0.686-0.002 0-0.004 0-0.006 0h-0.694v-3.432h1.39v-1.374h-7.645v1.373h4.865v3.432h-0.696c-0.001 0-0.003-0-0.005-0-0.38 0-0.688 0.307-0.69 0.687v4.875c-1.584 0.319-2.78 1.704-2.78 3.363v17.163c0 0.38 0.311 0.687 0.696 0.687h8.34c0.001 0 0.003 0 0.005 0 0.38 0 0.688-0.307 0.69-0.687v-17.163c0-1.656-1.195-3.044-2.779-3.364zM18.766 6.18h1.39v4.12h-1.39zM18.071 11.672h2.78c1.15 0 2.085 0.924 2.085 2.059v0.687h-6.95v-0.687c0-1.136 0.936-2.059 2.085-2.059zM22.936 27.463h-6.951v-1.373h2.78v-1.374h-2.78v-8.925h6.95zM15.986 30.209v-1.374h6.95v1.374zM39.313 9.389h-11.729c-0.361 0.006-0.651 0.3-0.651 0.662 0 0.004 0 0.007 0 0.011v-0.001 20.847c0 0.372 0.292 0.673 0.651 0.673h11.729c0.36 0 0.651-0.301 0.651-0.673v-20.847c0-0.003 0-0.007 0-0.010 0-0.362-0.29-0.656-0.651-0.662h-0.001zM38.661 30.236h-10.425v-19.502h10.425z"></path>
<path d="M9.557 23.046h-1.737v0.854h1.737zM21.72 24.753h-1.737v1.706h1.737zM19.548 23.046c1.676 0 3.040-1.34 3.040-2.987s-1.364-2.987-3.040-2.987c-1.677 0-3.041 1.339-3.041 2.987s1.364 2.987 3.040 2.987zM19.547 18.565c0.838 0 1.52 0.669 1.52 1.494s-0.682 1.494-1.521 1.494c-0.838 0-1.52-0.67-1.52-1.494s0.681-1.494 1.52-1.494zM31.819 16.216h3.257c1.258 0 2.281-0.956 2.281-2.134s-1.023-2.134-2.281-2.134h-3.257c-1.257 0-2.28 0.957-2.28 2.135s1.023 2.134 2.28 2.134zM36.055 14.084c0 0.504-0.439 0.915-0.978 0.915h-0.977v-1.829h0.977c0.539 0 0.978 0.41 0.978 0.914zM31.819 13.17h0.977v1.829h-0.977c-0.539 0-0.978-0.41-0.978-0.915s0.439-0.914 0.978-0.914zM31.819 23.046h3.257c1.258 0 2.281-1.148 2.281-2.56s-1.023-2.562-2.281-2.562h-3.257c-1.257 0-2.28 1.148-2.28 2.561s1.023 2.56 2.28 2.56zM36.055 20.485c0 0.604-0.439 1.096-0.978 1.096h-0.977v-2.193h0.977c0.539 0 0.978 0.492 0.978 1.097zM31.819 19.387h0.977v2.195h-0.977c-0.539 0-0.978-0.492-0.978-1.097s0.439-1.097 0.978-1.097zM31.819 29.020h3.257c1.258 0 2.281-1.148 2.281-2.56s-1.023-2.561-2.281-2.561h-3.257c-1.257 0-2.28 1.148-2.28 2.56s1.023 2.561 2.28 2.561zM36.055 26.46c0 0.604-0.439 1.096-0.978 1.096h-0.977v-2.194h0.977c0.539 0 0.978 0.492 0.978 1.096zM31.819 25.362h0.977v2.194h-0.977c-0.539 0-0.978-0.492-0.978-1.097s0.439-1.096 0.978-1.096z"></path>
</symbol>
<symbol id="icon-game-icons_materials-science" viewBox="0 0 32 32">
<path d="M16.061 1.4c-1.050 0-2.031 0.478-2.867 1.261s-1.551 1.873-2.148 3.195q-0.187 0.415-0.358 0.861c-0.218-0.038-0.535-0.081-0.855-0.114l-0.072-0.006c-0.301-0.033-0.667-0.057-1.036-0.066l-0.018-0c-1.027-0.025-1.965 0.080-2.787 0.329-1.096 0.333-2 0.943-2.525 1.852s-0.601 1.998-0.341 3.113c0.26 1.115 0.847 2.28 1.693 3.457q0.266 0.37 0.567 0.742c-0.168 0.206-0.354 0.447-0.534 0.693l-0.033 0.048c-0.846 1.177-1.433 2.342-1.693 3.457s-0.183 2.204 0.341 3.113c0.525 0.909 1.43 1.519 2.526 1.851s2.398 0.407 3.84 0.263q0.454-0.045 0.926-0.12 0.167 0.437 0.359 0.863c0.597 1.321 1.312 2.411 2.148 3.195s1.817 1.261 2.867 1.261 2.031-0.479 2.867-1.261c0.835-0.783 1.551-1.873 2.147-3.195q0.193-0.427 0.36-0.863 0.471 0.075 0.924 0.12c1.443 0.144 2.745 0.070 3.841-0.263 1.097-0.332 2.001-0.943 2.526-1.852s0.601-1.997 0.341-3.113c-0.26-1.115-0.847-2.28-1.693-3.457-0.212-0.294-0.398-0.536-0.59-0.772l0.024 0.031q0.294-0.363 0.567-0.742c0.847-1.177 1.433-2.342 1.693-3.457s0.184-2.204-0.341-3.113c-0.525-0.909-1.43-1.52-2.525-1.852-0.822-0.249-1.76-0.353-2.787-0.329-0.388 0.010-0.753 0.034-1.115 0.072l0.060-0.005q-0.453 0.045-0.926 0.12c-0.152-0.401-0.273-0.685-0.401-0.965l0.043 0.104c-0.597-1.321-1.312-2.412-2.148-3.195s-1.817-1.261-2.867-1.261zM16.061 2.567c0.7 0 1.387 0.308 2.068 0.946 0.68 0.638 1.331 1.603 1.881 2.823q0.134 0.299 0.255 0.603c-1.339 0.298-2.756 0.755-4.205 1.365-1.449-0.61-2.867-1.067-4.205-1.364q0.124-0.311 0.255-0.603c0.551-1.22 1.201-2.185 1.882-2.823s1.367-0.945 2.068-0.945zM8.336 7.695q0.17-0.002 0.343 0.003 0.467 0.010 0.965 0.060 0.32 0.032 0.652 0.080c-0.412 1.309-0.725 2.764-0.922 4.324-1.253 0.95-2.357 1.95-3.284 2.96q-0.204-0.257-0.395-0.523c-0.781-1.087-1.292-2.133-1.504-3.041s-0.135-1.657 0.215-2.263c0.35-0.607 0.96-1.047 1.853-1.318 0.586-0.178 1.287-0.273 2.077-0.28zM23.784 7.696c0.789 0.007 1.491 0.103 2.077 0.281 0.893 0.271 1.503 0.711 1.853 1.318s0.427 1.355 0.215 2.263-0.723 1.955-1.504 3.041q-0.192 0.266-0.395 0.524c-0.927-1.011-2.031-2.010-3.283-2.96-0.196-1.56-0.51-3.016-0.921-4.324q0.331-0.049 0.651-0.081c0.378-0.040 0.816-0.063 1.259-0.063 0.017 0 0.035 0 0.052 0h-0.003zM20.664 8.049c0.291 0.874 0.555 1.941 0.741 3.035l0.019 0.134c-1.102-0.756-2.374-1.502-3.698-2.158l-0.186-0.084c1.083-0.404 2.133-0.713 3.124-0.927zM11.457 8.049c0.99 0.213 2.040 0.523 3.123 0.927-1.51 0.74-2.781 1.486-3.993 2.313l0.111-0.071c0.205-1.227 0.469-2.294 0.805-3.328l-0.045 0.16zM16.060 9.577c1.161 0.515 2.105 1.003 3.018 1.539l-0.141-0.077c0.963 0.555 1.867 1.147 2.705 1.761 0.113 1.033 0.173 2.112 0.173 3.223 0 1.11-0.061 2.189-0.173 3.221-0.766 0.567-1.649 1.149-2.563 1.684l-0.142 0.077c-0.772 0.459-1.716 0.947-2.688 1.386l-0.189 0.076c-1.161-0.515-2.105-1.003-3.019-1.539l0.141 0.077c-1.055-0.611-1.938-1.193-2.787-1.818l0.083 0.058c-0.11-0.964-0.173-2.082-0.173-3.214 0-0.003 0-0.006 0-0.009v0c0-1.111 0.060-2.19 0.173-3.223 0.766-0.567 1.649-1.149 2.563-1.684l0.142-0.077c0.772-0.459 1.716-0.947 2.687-1.385l0.189-0.076zM16.139 11.335l-3.344 2.064 3.344 2.063 3.343-2.063zM9.217 13.782c-0.050 0.671-0.079 1.453-0.079 2.242s0.029 1.571 0.085 2.346l-0.006-0.104c-0.859-0.708-1.631-1.441-2.348-2.225l-0.016-0.017c0.733-0.801 1.505-1.534 2.325-2.211l0.039-0.031zM22.905 13.781c0.859 0.708 1.63 1.441 2.348 2.225l0.015 0.017c-0.733 0.801-1.505 1.534-2.325 2.21l-0.039 0.031c0.050-0.671 0.079-1.453 0.079-2.242s-0.029-1.571-0.085-2.345l0.006 0.104zM12.042 14.306v4.075l3.512 2.167v-4.075zM20.233 14.308l-3.511 2.167v4.073l3.511-2.167zM6.091 16.923c0.927 1.011 2.031 2.010 3.284 2.96 0.196 1.56 0.51 3.015 0.921 4.323q-0.331 0.048-0.651 0.080c-1.331 0.133-2.493 0.053-3.385-0.218s-1.503-0.711-1.853-1.318c-0.349-0.607-0.427-1.355-0.215-2.263s0.723-1.955 1.504-3.041q0.191-0.266 0.395-0.523zM26.030 16.923q0.207 0.262 0.395 0.523c0.781 1.087 1.292 2.133 1.504 3.041s0.135 1.657-0.215 2.263c-0.35 0.607-0.96 1.047-1.853 1.318s-2.053 0.351-3.385 0.218q-0.325-0.033-0.65-0.080c0.412-1.309 0.725-2.765 0.921-4.325 1.253-0.949 2.357-1.949 3.283-2.959zM21.425 20.829c-0.205 1.227-0.469 2.295-0.805 3.329l0.045-0.16c-1.225-0.271-2.269-0.59-3.278-0.979l0.155 0.052c1.51-0.741 2.782-1.486 3.994-2.313l-0.11 0.071zM10.698 20.829c1.101 0.756 2.372 1.501 3.696 2.158l0.186 0.084c-0.854 0.336-1.898 0.655-2.971 0.898l-0.152 0.029c-0.291-0.874-0.555-1.941-0.741-3.034l-0.019-0.134zM16.095 20.883l0.043 0.027 0.043-0.027zM16.060 23.743c1.449 0.61 2.867 1.067 4.206 1.364q-0.121 0.305-0.256 0.605c-0.551 1.219-1.201 2.185-1.882 2.823-0.68 0.638-1.367 0.945-2.067 0.945s-1.387-0.307-2.068-0.945-1.331-1.603-1.882-2.823q-0.134-0.3-0.256-0.605c1.339-0.297 2.757-0.754 4.205-1.364z"></path>
</symbol>
<symbol id="icon-Arrow-1" viewBox="0 0 38 32">
<path d="M0.625 17.218c-0.386-0.386-0.625-0.919-0.625-1.508s0.239-1.122 0.625-1.508l13.576-13.576c0.382-0.364 0.9-0.588 1.471-0.588 1.179 0 2.134 0.955 2.134 2.134 0 0.571-0.224 1.089-0.589 1.472l0.001-0.001-12.068 12.068 12.068 12.068c0.364 0.382 0.588 0.9 0.588 1.471 0 1.179-0.955 2.134-2.134 2.134-0.571 0-1.089-0.224-1.472-0.589l0.001 0.001zM37.892 15.71v2.133h-35.759v-4.267h35.759v2.133z"></path>
</symbol>
<symbol id="icon-ph_instagram-logo-light" viewBox="0 0 32 32">
<path d="M16 10.25c-2.382 0-4.425 1.448-5.298 3.512l-0.014 0.038c-0.277 0.65-0.438 1.406-0.438 2.2 0 3.176 2.574 5.75 5.75 5.75s5.75-2.574 5.75-5.75c0-3.175-2.574-5.75-5.749-5.75h-0zM16 20.25c-0.001 0-0.003 0-0.004 0-2.346 0-4.248-1.902-4.248-4.248 0-1.175 0.477-2.238 1.247-3.007l0-0c0.769-0.768 1.832-1.243 3.005-1.243 1.467 0 2.76 0.742 3.525 1.872l0.010 0.015c0.449 0.663 0.716 1.481 0.716 2.361 0 0 0 0 0 0v0c-0.009 2.344-1.906 4.242-4.249 4.25h-0.001zM21.5 3.75h-11c-3.728 0-6.75 3.022-6.75 6.75v0 11c0 3.728 3.022 6.75 6.75 6.75v0h11c3.728 0 6.75-3.022 6.75-6.75v0-11c0-3.728-3.022-6.75-6.75-6.75v0zM26.75 21.5c0 0.001 0 0.002 0 0.003 0 2.898-2.349 5.247-5.247 5.247-0.001 0-0.002 0-0.003 0h-11c-0.001 0-0.002 0-0.003 0-2.898 0-5.247-2.349-5.247-5.247 0-0.001 0-0.002 0-0.003v0-11c0-0.001 0-0.002 0-0.003 0-2.898 2.349-5.247 5.247-5.247 0.001 0 0.002 0 0.003 0h11c0.001 0 0.002 0 0.003 0 2.898 0 5.247 2.349 5.247 5.247 0 0.001 0 0.002 0 0.003v-0zM23.75 9.5c0 0.002 0 0.004 0 0.006 0 0.516-0.315 0.959-0.764 1.145l-0.008 0.003c-0.142 0.061-0.306 0.096-0.48 0.096-0.604 0-1.108-0.429-1.223-0.999l-0.001-0.008c-0.015-0.072-0.023-0.155-0.023-0.239 0-0.432 0.218-0.814 0.55-1.041l0.004-0.003c0.195-0.132 0.436-0.211 0.695-0.211 0.345 0 0.657 0.14 0.883 0.366v0c0.234 0.234 0.366 0.552 0.366 0.884z"></path>
</symbol>
<symbol id="icon-telephone-receiver_icon-iconscom_56033-1" viewBox="0 0 32 32">
<path d="M27.655 22.957l-0.173-0.216c-1.372-1.735-2.519-2.637-3.503-2.756-0.851-0.116-1.673 0.472-2.548 1.077l-0.935 0.584c-0.092 0.048-0.2 0.093-0.313 0.128l-0.014 0.004c-0.547 0.155-1.927 0.245-2.708-0.469-0.909-0.832-2.32-2.355-3.417-3.685-1.048-1.377-2.2-3.095-2.801-4.176-0.508-0.916-0.083-2.197 0.201-2.672q0.086-0.14 0.211-0.276l0.824-0.761c0.012-0.012 0.017-0.027 0.028-0.037 0.008-0.008 0.021-0.005 0.031-0.012 0.744-0.628 1.513-1.275 1.619-2.105 0.124-0.976-0.483-2.296-1.857-4.029l-0.168-0.216c-0.851-1.091-2.137-2.74-3.985-2.468-0.727 0.108-1.376 0.356-2.045 0.776-0.007 0.004-0.011 0.012-0.016 0.016s-0.012 0.004-0.017 0.008l-0.932 0.691c-0.009 0.005-0.015 0.017-0.024 0.025-0.007 0.007-0.017 0.008-0.025 0.015-0.127 0.107-0.232 0.199-0.336 0.292l0.013-0.012c-0.945 0.843-2.992 3.289-1.596 7.815 0.901 2.923 2.76 6.333 5.388 9.883l-0.025 0.021 1.449 1.805 0.012-0.009c2.849 3.371 5.749 5.976 8.407 7.553 1.773 1.053 3.323 1.401 4.597 1.401 1.677 0 2.879-0.603 3.481-0.995l0.379-0.253c0.043-0.029 0.073-0.071 0.104-0.108l0.825-0.621 0.024-0.027c0.004-0.004 0.011-0.003 0.016-0.007 0.587-0.536 0.993-1.097 1.276-1.763 0.732-1.705-0.579-3.339-1.445-4.42zM28.12 26.959c-0.22 0.517-0.541 0.957-1.005 1.384l-1.228 0.924c-1.112 0.723-3.489 1.616-6.943-0.435-2.657-1.577-5.583-4.244-8.461-7.712l-0.779-0.984c-2.711-3.595-4.617-7.037-5.517-9.955-1.169-3.793 0.304-5.828 1.291-6.707q0.15-0.135 0.299-0.259l0.004-0.004 0.895-0.663c0.464-0.308 1.013-0.528 1.605-0.621l0.023-0.003c1.239-0.187 2.247 1.12 2.987 2.069l0.173 0.22c1.536 1.937 1.684 2.859 1.636 3.235-0.053 0.417-0.688 0.952-1.248 1.423l-0.079 0.067-0.007 0.009-0.012 0.007-0.852 0.788q-0.007 0.008-0.013 0.019c-0.006 0.011-0.016 0.009-0.021 0.016-0.121 0.133-0.232 0.28-0.33 0.436l-0.007 0.013c-0.479 0.801-0.931 2.457-0.217 3.739 0.623 1.12 1.808 2.889 2.897 4.319 1.139 1.381 2.591 2.949 3.532 3.809 0.705 0.644 1.687 0.86 2.536 0.86 0.455 0 0.872-0.063 1.188-0.152q0.25-0.073 0.516-0.204c0.011-0.005 0.016-0.015 0.027-0.021 0.005-0.003 0.013-0.001 0.019-0.005l0.989-0.619c0.032-0.021 0.053-0.049 0.080-0.076l0.012 0.013c0.609-0.423 1.304-0.919 1.739-0.847 0.385 0.047 1.26 0.417 2.799 2.36l0.177 0.223c0.749 0.935 1.776 2.215 1.297 3.333z"></path>
</symbol>
<symbol id="icon-uit_facebook-f" viewBox="0 0 32 32">
<path d="M23.987 2.128c-1.176-0.133-2.539-0.208-3.92-0.208-0.045 0-0.091 0-0.136 0l0.007-0c-4.484 0-7.271 2.856-7.271 7.453v3.121h-3.767c-0 0-0.001 0-0.001 0-0.367 0-0.665 0.298-0.665 0.665 0 0 0 0.001 0 0.001v-0 5.133c0 0 0 0.001 0 0.001 0 0.367 0.298 0.665 0.665 0.665 0 0 0.001 0 0.001 0h3.767v10.293c0 0 0 0.001 0 0.001 0 0.367 0.298 0.665 0.665 0.665 0 0 0.001 0 0.001 0h5.304c0 0 0.001 0 0.001 0 0.367 0 0.665-0.298 0.665-0.665 0-0 0-0.001 0-0.001v0-10.293h3.755c0.337-0.002 0.616-0.252 0.661-0.578l0-0.003 0.663-5.133q0.018-0.143-0.023-0.281c-0.041-0.138-0.074-0.175-0.137-0.246q-0.096-0.107-0.226-0.168c-0.13-0.061-0.18-0.059-0.275-0.059h-4.417v-2.612c0-1.293 0.26-1.833 1.877-1.833h2.719c0 0 0.001 0 0.001 0 0.367 0 0.665-0.298 0.665-0.665 0-0 0-0.001 0-0.001v0-4.593c-0.002-0.337-0.252-0.616-0.578-0.661l-0.003-0zM23.233 6.715l-2.053 0.001c-2.876 0-3.209 1.808-3.209 3.167v3.28c0 0.001 0 0.001 0 0.002 0 0.367 0.298 0.665 0.665 0.665 0 0 0.001 0 0.001 0h4.328l-0.492 3.8h-3.835c-0 0-0.001 0-0.001 0-0.367 0-0.665 0.298-0.665 0.665 0 0 0 0.001 0 0.001v-0 10.291h-3.971v-10.291c0-0 0-0.001 0-0.001 0-0.367-0.298-0.665-0.665-0.665-0 0-0.001 0-0.001 0h-3.765v-3.8h3.765c0 0 0.001 0 0.001 0 0.367 0 0.665-0.298 0.665-0.665 0-0 0-0.001 0-0.001v0-3.789c0-3.832 2.22-6.12 5.937-6.12 1.345 0 2.56 0.073 3.296 0.137z"></path>
</symbol>
</defs>
</svg>
